<svg version="1.1" id="svg2" xmlns="http://www.w3.org/2000/svg" viewBox="15.33 23.84 456.24 369.2">
  <g id="g8" transform="matrix(1.333333, 0, 0, -1.333333, -289.903198, 818.810608)">
    <g id="g10" transform="scale(0.1)">
      <path d="m 3257.15,4195.8 c 22.83,-40.82 46.63,-81.63 70.43,-122.44 72.88,-125.83 475.16,-783.18 680.2,-673.38 229.82,122.41 -222.52,1136.88 211.83,902.7 254.6,-137.49 98.63,-965.87 318.24,-1102.39 199.19,-76.28 381.87,494.59 415.4,631.61 48.11,193.84 109.8,561.64 110.77,912.91 295.39,279.84 795.33,622.37 604.88,987.24 -252.14,483.43 -1806.87,90.86 -2102.77,-138.46 479.05,82.59 983.87,327.47 1513.43,207.46 508.2,-115.63 395.98,-479.05 -26.24,-874.54 C 4844.9,4748.7 4588.86,4586.42 4298.79,4457.67 3940.24,4298.79 3579.74,4212.81 3257.15,4195.8 v 0" style="fill:#dba5b8;fill-opacity:1;fill-rule:evenodd;stroke:none" id="path14"></path>
      <path d="m 2976.32,5025.62 c 15.06,-231.73 81.62,-430.94 171.5,-619.45 -864.32,68.5 -856.07,542.21 -46.15,1104.82 -2104.225,-1053.8 362.43,-1904.53 1945.82,-474.67 -32.55,264.3 -119.52,482.94 -301.23,554.83 -332.8,131.68 -520.82,-200.17 -734.1,-358.55 181.7,121.45 326.96,168.1 363.89,-89.39 -93.76,-293.94 -1452.2,691.36 -1399.73,-117.59 v 0" style="fill:#fff;fill-opacity:1;fill-rule:evenodd;stroke:none" id="path16"></path>
    </g>
  </g>
</svg>